# File created by Blade
# Date/Time:  Tue Jan 27 19:58:31 2015
# Frame Rate: 120.000 fps
#------------------------------------------------------
:FULLY-SPECIFIED
:DEGREES
3267
root 5.721584 34.971745 2.035954 26.657060 -0.099895 -39.126645
Spine 1.795782 15.205928 15.843662
Head -34.963302 -3.260206 28.861894
LeftShoulder -11.468542 -8.419813 37.490954
LeftArm 1.723839 -18.648992 -76.495694
LeftForeArm -48.313485 -0.000000 136.817562
LeftHand 7.052288 -0.000000 -40.629661
LeftHandThumb1 -26.253704 0.000000 33.147579
RightShoulder -10.417449 -0.408394 -10.558463
RightArm 34.321267 -46.285146 70.923914
RightForeArm -26.880151 -0.000000 12.625852
RightHand 15.825410 -0.000000 10.466932
RightHandThumb1 -24.326973 -0.000000 -32.862282
LeftUpLeg -17.189069 11.188543 31.630432
LeftLeg -1.935604 -0.000000 0.000000
LeftFoot -16.437903 12.262742 -18.270769
LeftToeBase 23.533495 -0.000000 -0.000000
RightUpLeg 23.059842 -29.089292 -44.285905
RightLeg 96.142077 -0.000000 -0.000000
RightFoot 33.287975 -25.843090 18.753858
RightToeBase 18.671242 -0.000000 -0.000000
3268
root 5.753500 34.957809 2.029577 26.586101 -0.461930 -38.992356
Spine 1.913520 15.337008 15.711826
Head -34.658675 -3.254928 28.705907
LeftShoulder -11.448809 -8.430834 37.457797
LeftArm 1.607000 -18.506509 -76.552982
LeftForeArm -48.096949 0.000000 136.739458
LeftHand 7.054238 -0.000000 -40.575402
LeftHandThumb1 -26.253704 0.000000 33.147579
RightShoulder -10.362109 -0.416863 -10.614113
RightArm 34.278616 -46.304014 70.997876
RightForeArm -26.708044 0.000000 12.762426
RightHand 15.853259 -0.000000 10.150893
RightHandThumb1 -24.326973 -0.000000 -32.862282
LeftUpLeg -16.883581 11.247574 31.362538
LeftLeg -2.063365 -0.000000 0.000000
LeftFoot -16.419387 12.330053 -18.097746
LeftToeBase 23.616875 -0.000000 -0.000000
RightUpLeg 22.734819 -29.303458 -44.185574
RightLeg 96.172683 -0.000000 -0.000000
RightFoot 33.284991 -25.762129 18.729472
RightToeBase 18.754332 -0.000000 -0.000000
3269
root 5.782941 34.945391 2.023637 26.526207 -0.793314 -38.880510
Spine 2.006150 15.477365 15.613610
Head -34.357659 -3.262341 28.534107
LeftShoulder -11.387846 -8.445125 37.402453
LeftArm 1.480347 -18.421875 -76.592446
LeftForeArm -47.962646 -0.000000 136.653793
LeftHand 7.109290 -0.000000 -40.496191
LeftHandThumb1 -26.253704 0.000000 33.147579
RightShoulder -10.341696 -0.352440 -10.706839
RightArm 34.125372 -46.339825 71.205275
RightForeArm -26.647456 -0.000000 12.828788
RightHand 15.889805 -0.000000 10.433709
RightHandThumb1 -24.326973 -0.000000 -32.862282
LeftUpLeg -16.598580 11.307115 31.128859
LeftLeg -2.196034 -0.000000 0.000000
LeftFoot -16.417520 12.372712 -18.074116
LeftToeBase 23.576266 -0.000000 -0.000000
RightUpLeg 22.406458 -29.536124 -44.037221
RightLeg 96.199310 -0.000000 -0.000000
RightFoot 33.236598 -25.675130 18.787207
RightToeBase 18.884588 -0.000000 -0.000000
3270
root 5.814745 34.932163 2.017719 26.449306 -1.171917 -38.755701
Spine 2.133685 15.637493 15.477777
Head -34.071053 -3.213680 28.400453
LeftShoulder -11.359768 -8.462355 37.380423
LeftArm 1.345780 -18.323701 -76.681582
LeftForeArm -47.831474 -0.000000 136.558657
LeftHand 7.122048 -0.000000 -40.512559
LeftHandThumb1 -26.253704 0.000000 33.147579
RightShoulder -10.325371 -0.336650 -10.792117
RightArm 34.077768 -46.361269 71.348920
RightForeArm -26.443863 0.000000 12.873346
RightHand 16.011825 -0.000000 10.456736
RightHandThumb1 -24.326973 -0.000000 -32.862282
LeftUpLeg -16.276600 11.427209 30.845099
LeftLeg -2.348663 -0.000000 0.000000
LeftFoot -16.428843 12.422198 -18.133550
LeftToeBase 23.686285 -0.000000 -0.000000
RightUpLeg 22.029895 -29.731457 -43.931177
RightLeg 96.260650 -0.000000 -0.000000
RightFoot 33.369205 -25.474306 18.669079
RightToeBase 18.664771 -0.000000 -0.000000
3271
root 5.847668 34.921643 2.012008 26.361527 -1.501303 -38.657245
Spine 2.282734 15.736152 15.410915
Head -33.804554 -3.157530 28.232273
LeftShoulder -11.358019 -8.460261 37.348836
LeftArm 1.196295 -18.221045 -76.785448
LeftForeArm -47.707413 -0.000000 136.497090
LeftHand 7.138569 -0.000000 -40.566314
LeftHandThumb1 -26.253704 0.000000 33.147579
RightShoulder -10.326311 -0.327829 -10.894385
RightArm 34.063175 -46.421690 71.442463
RightForeArm -26.267014 -0.000000 12.998496
RightHand 16.065376 -0.000000 10.407577
RightHandThumb1 -24.326973 -0.000000 -32.862282
LeftUpLeg -16.021136 11.417808 30.647495
LeftLeg -2.360985 -0.000000 0.000000
LeftFoot -16.492886 12.493448 -18.104157
LeftToeBase 23.804699 -0.000000 -0.000000
RightUpLeg 21.636894 -29.923722 -43.703292
RightLeg 96.307070 -0.000000 -0.000000
RightFoot 33.510370 -25.287551 18.550654
RightToeBase 18.634911 -0.000000 -0.000000
3272
root 5.890963 34.907351 1.997682 26.316382 -1.900416 -38.468564
Spine 2.424315 15.815654 15.227848
Head -33.556515 -3.062406 28.032924
LeftShoulder -11.382547 -8.301433 37.274183
LeftArm 1.167560 -18.171563 -76.904853
LeftForeArm -47.582631 -0.000000 136.480217
LeftHand 7.196980 -0.000000 -40.588925
LeftHandThumb1 -26.253704 0.000000 33.147579
RightShoulder -10.313752 -0.326942 -11.008099
RightArm 34.188834 -46.512440 71.461934
RightForeArm -26.091234 -0.000000 13.054532
RightHand 15.987873 -0.000000 10.350152
RightHandThumb1 -24.326973 -0.000000 -32.862282
LeftUpLeg -15.841374 11.345222 30.334777
LeftLeg -2.291054 -0.000000 0.000000
LeftFoot -16.571011 12.638489 -18.065447
LeftToeBase 23.842557 -0.000000 -0.000000
RightUpLeg 21.112692 -30.104367 -43.588703
RightLeg 96.468348 -0.000000 -0.000000
RightFoot 33.707646 -24.985346 18.364077
RightToeBase 18.424346 -0.000000 -0.000000
